<?xml version="1.0" encoding="utf-8"?>
<!-- Generator: Adobe Illustrator 16.0.0, SVG Export Plug-In . SVG Version: 6.00 Build 0)  -->
<!DOCTYPE svg PUBLIC "-//W3C//DTD SVG 1.1//EN" "http://www.w3.org/Graphics/SVG/1.1/DTD/svg11.dtd">
<svg version="1.1" id="Layer_1" xmlns="http://www.w3.org/2000/svg" xmlns:xlink="http://www.w3.org/1999/xlink" x="0px" y="0px"
	 width="425px" height="425px" viewBox="168.026 80.938 425 425" enable-background="new 168.026 80.938 425 425"
	 xml:space="preserve">
<path fill="#1FFFE4" d="M388.116,110.586c-4.217-3.795-10.542-3.795-14.758,0c-5.06,4.217-123.122,104.991-110.051,210.403
	c5.902,48.911,38.792,89.812,97.822,122.279c2.109,7.168,3.796,13.914,5.061,19.817c1.265,7.168,2.53,12.228,2.951,15.18
	c1.265,5.481,5.903,9.275,11.385,9.275c0.844,0,1.687,0,2.108-0.421c6.325-1.266,10.119-7.168,9.275-13.493
	c-0.422-2.53-1.688-8.433-3.372-16.022c-0.422-2.53-0.844-5.06-1.688-8.012c67.04-33.311,104.567-76.74,110.892-129.025
	C510.814,215.577,393.176,114.802,388.116,110.586z M459.373,239.189c-33.731,1.687-60.295,13.914-78.003,37.105
	c-5.903,7.589-10.542,15.601-13.915,24.455c-5.06-68.308-2.107-134.085,19.817-158.962
	C405.824,159.919,439.133,196.602,459.373,239.189z M350.59,166.665c-13.071,49.333-9.276,123.122-2.109,186.791
	c-15.601-24.455-36.684-43.008-62.825-43.008C283.125,255.634,320.23,201.24,350.59,166.665z M289.028,333.638
	c26.564,2.952,46.803,38.792,60.718,75.476C317.7,387.188,297.04,361.889,289.028,333.638z M474.973,318.038
	c-5.059,42.165-36.262,78.427-91.495,107.521c-5.06-27.407-14.336-96.558,16.022-135.35c14.758-18.975,37.104-28.251,67.885-28.251
	c0.42,0,0.842,0,1.264-0.421C474.553,280.089,477.504,299.063,474.973,318.038z"/>
</svg>
