<svg fill="#000000" xmlns="http://www.w3.org/2000/svg" xmlns:xlink="http://www.w3.org/1999/xlink" version="1.1" x="0px" y="0px" viewBox="0 0 100 100" enable-background="new 0 0 100 100" xml:space="preserve"><path d="M53.905,29.607c-7.63,1.049-15.645,0.714-22.613,4.262c-6.695,3.403-12.998,11.917-16.278,18.643  c-2.811,5.778-3.161,12.173-4.245,18.388c-0.439,2.517-0.656,5.021-1.349,7.465c-0.738,2.607-3.077,5.332-3.174,7.911l0.378-0.347  c5.623-5.007,13.596-3.046,20.44-2.839c6.971,0.211,15.003-1.699,21.558-3.694c14.977-4.572,29.165-16.957,35.967-31.12  c5.161-10.759,6.749-22.653,9.166-34.553C86.056,29.089,68.552,27.589,53.905,29.607z M13.715,80.309  c-0.328,0.244-0.525,0.389-0.566,0.4c0.324-0.528,0.669-1.038,1.026-1.539c0.146-0.332,0.298-0.66,0.46-0.983  c1.564-8.205,10.003-14.979,14.534-22.472c2.747-4.544,4.812-9.635,4.754-14.98c0.097,0.503,0.191,1.008,0.291,1.505  c0.45,8.272-1.576,17.919-8.183,22.885c-2.434,1.83-4.443,3.904-6.072,5.91c6.769-6.807,16.712-11.96,23.696-18.552  c5.605-5.295,10.473-11.624,12.468-19.121c-0.061,0.741-0.126,1.478-0.181,2.216c-2.228,10.16-7.459,21.034-16.053,26.629  c6.981-2.953,14.119-5.753,20.197-9.395c8.762-5.249,16.857-12.045,21.577-21.17c-0.288,0.94-0.582,1.88-0.865,2.816  c-6.685,14.464-18.814,29.037-34.52,31.523c-15.718,2.489-27.79,10.831-31.745,13.726 M14.426,79.783  c-0.05,0.037-0.106,0.077-0.153,0.112"/></svg>