<svg fill="#000000" xmlns="http://www.w3.org/2000/svg" xmlns:xlink="http://www.w3.org/1999/xlink" xmlns:sketch="http://www.bohemiancoding.com/sketch/ns" viewBox="0 0 100 100" version="1.1" x="0px" y="0px"><title>2</title><desc>Created with Sketch.</desc><g stroke="none" stroke-width="1" fill="none" fill-rule="evenodd" sketch:type="MSPage"><path d="M70.6721647,78.5509417 C70.6721647,78.5509417 70.6531598,78.3522539 70.6009442,77.988281 C70.5811714,77.8508313 70.5565994,77.6891936 70.5262684,77.5047115 C70.0064167,74.3333863 67.8047261,64.4231868 59.611304,54.6460218 C54.7727294,48.8723669 47.8455337,43.1465123 37.9410934,38.8853799 C37.8838867,38.9425867 46.5384179,42.1876279 54.5698183,51.373529 C56.6127507,53.7099817 58.6149857,56.4305641 60.4237161,59.5815407 C57.929465,57.2729234 54.8963573,55.2802868 51.2053724,53.8226674 C50.9924789,53.7385851 50.7801614,53.6510473 50.5705314,53.5589022 C50.1610619,53.3790274 49.3872355,53.0910742 49.7471771,53.6669807 C49.7471771,53.6669807 62.6090894,59.3300615 65.3926376,72.5759115 C66.2348049,76.583453 66.689963,80.1682792 66.9450896,83.2340216 C63.961126,80.8710771 60.5316026,79.602739 57.0433368,78.2326574 C56.2641353,77.926659 55.489733,77.6077988 54.7218576,77.2745409 C51.9158491,76.0568825 49.2067848,74.6096294 46.6530233,72.9249109 C41.4994278,69.5251427 36.9541816,65.1234891 33.772682,59.8057603 C30.3235778,54.0405521 28.9870907,47.1085572 28.3687591,40.4725783 C27.8729036,35.1542736 27.9589056,29.7699315 28.5981618,24.4677521 C28.818926,22.6365613 29.8778261,15.5137495 30.4550764,12.6676194 C30.5508689,12.1955681 31.1509635,12.048328 31.456002,12.4213234 C40.5670351,23.5639628 55.6028026,33.352838 66.462288,49.0986982 C68.3441585,51.8273433 69.7910277,54.8520043 70.6474007,58.0582679 C72.2332553,63.9945204 72.1712494,70.3170142 70.9649172,76.3289024 C70.8217084,77.7091583 70.6721647,78.5509417 70.6721647,78.5509417 M71.5118364,83.0986835 C76.9432108,73.7922261 78.9216417,62.9889876 74.6221155,52.8182864 C69.8534176,41.5383893 59.6427869,33.5901114 50.8078049,25.5921136 C46.3234128,21.5327405 30.9342307,5 28.9126068,5 C26.4358248,5 24.5514587,25.0075685 24.2531391,30.955915 C23.7707214,40.5796969 23.5593637,50.3641568 27.648492,59.3304454 C33.1963915,71.4955109 44.2904628,79.3289914 57.0656052,82.4463734 C59.192236,82.9652652 61.3931588,83.3046661 63.4729492,83.9980576 C65.3068275,84.6092863 66.437332,85.3174594 67.1332191,85.9891584 C67.4248198,91.4093986 67.1570232,94.6515603 67.7922481,94.9402815 C68.8480767,95.4202036 72.3035159,92.9246087 72.111547,90.4290137 C72.0547243,89.6912775 72.0481973,86.8896842 71.5118364,83.0986835" fill="#000000" sketch:type="MSShapeGroup"/></g></svg>