<svg fill="#000000" xmlns="http://www.w3.org/2000/svg" xmlns:xlink="http://www.w3.org/1999/xlink" version="1.1" x="0px" y="0px" viewBox="0 0 56.883 79.534" enable-background="new 0 0 56.883 79.534" xml:space="preserve"><g><path d="M53.208,0.806c-0.416-0.668-1.236-0.963-1.982-0.723c-0.752,0.237-1.247,0.962-1.201,1.75   c0.012,0.237,0.24,5.877-7.133,10.562c-2.453,1.557-5.776,2.682-9.623,3.985c-9.613,3.255-21.578,7.304-28.934,21.275   c-9.433,17.904-0.801,38.033,1.018,41.879l5.435-3.127C8.144,72.961,1.443,62.98,4.774,53.989   c4.125-11.131,22.18-16.868,22.362-16.925l-0.728-2.309c-0.723,0.224-16.432,5.263-22.514,15.573   c0.516-3.695,1.586-7.446,3.493-11.07c6.715-12.749,17.957-16.553,26.99-19.611c3.887-1.317,7.561-2.558,10.364-4.341   c4.113-2.611,6.296-5.564,7.451-8.058c1.981,6.577,3.277,19.514-9.03,34.436C25.494,63.104,8.966,57.875,8.27,57.642l-0.554,1.636   L7.154,60.91c0.778,0.268,19.4,6.331,38.672-17.03C65.115,20.486,53.33,0.998,53.208,0.806z"/></g></svg>