<svg fill="#000000" xmlns="http://www.w3.org/2000/svg" xmlns:xlink="http://www.w3.org/1999/xlink" version="1.1" x="0px" y="0px" viewBox="0 0 100 100" style="enable-background:new 0 0 100 100;" xml:space="preserve"><style type="text/css">
	.st0{fill-rule:evenodd;clip-rule:evenodd;}
</style><path d="M51.8,5.6c-1-0.9-2.5-0.9-3.5,0c-1.2,1-29.2,24.9-26.1,49.9c1.4,11.6,9.2,21.3,23.2,29c0.5,1.7,0.9,3.3,1.2,4.7  c0.3,1.7,0.6,2.9,0.7,3.6c0.3,1.3,1.4,2.2,2.7,2.2c0.2,0,0.4,0,0.5-0.1c1.5-0.3,2.4-1.7,2.2-3.2c-0.1-0.6-0.4-2-0.8-3.8  c-0.1-0.6-0.2-1.2-0.4-1.9c15.9-7.9,24.8-18.2,26.3-30.6C80.9,30.5,53,6.6,51.8,5.6z M68.7,36.1c-8,0.4-14.3,3.3-18.5,8.8  c-1.4,1.8-2.5,3.7-3.3,5.8c-1.2-16.2-0.5-31.8,4.7-37.7C56,17.3,63.9,26,68.7,36.1z M42.9,18.9c-3.1,11.7-2.2,29.2-0.5,44.3  c-3.7-5.8-8.7-10.2-14.9-10.2C26.9,40,35.7,27.1,42.9,18.9z M28.3,58.5c6.3,0.7,11.1,9.2,14.4,17.9C35.1,71.2,30.2,65.2,28.3,58.5z   M72.4,54.8c-1.2,10-8.6,18.6-21.7,25.5c-1.2-6.5-3.4-22.9,3.8-32.1c3.5-4.5,8.8-6.7,16.1-6.7c0.1,0,0.2,0,0.3-0.1  C72.3,45.8,73,50.3,72.4,54.8z"/></svg>