<svg fill="#000000" xmlns="http://www.w3.org/2000/svg" xmlns:xlink="http://www.w3.org/1999/xlink" version="1.1" x="0px" y="0px" viewBox="0 0 100 100" enable-background="new 0 0 100 100" xml:space="preserve"><g><path d="M50,88.5c-0.587,0-1.175-0.146-1.708-0.44c-1.13-0.622-1.832-1.809-1.832-3.099V45.414c0-1.955,1.585-3.54,3.54-3.54   s3.54,1.585,3.54,3.54v33.122l5.585-3.53c0.026-0.016,0.053-0.033,0.08-0.049c5.506-3.277,8.793-9.058,8.793-15.462   c0-2.652-0.132-3.441-0.424-5.172c-1.83-10.91-10.031-24.986-15.458-34.3c-0.775-1.331-1.48-2.541-2.109-3.642   c-0.486,0.873-1.008,1.801-1.557,2.777c-5.204,9.259-13.067,23.251-16.073,35.385c-0.342,1.384-0.375,2.121-0.375,4.951   c0,6.892,3.838,13.07,10.017,16.128c1.752,0.866,2.47,2.989,1.603,4.741c-0.867,1.753-2.991,2.47-4.743,1.604   c-8.609-4.259-13.957-12.869-13.957-22.473c0-2.982,0.024-4.396,0.583-6.653c3.236-13.065,11.382-27.56,16.773-37.152   c0.88-1.565,1.689-3.006,2.394-4.292c0.98-1.787,3.023-2.899,5.333-2.905c0.005,0,0.011,0,0.017,0c2.313,0,4.292,1.08,5.295,2.89   c0.789,1.424,1.774,3.116,2.915,5.075c5.688,9.76,14.281,24.508,16.317,36.649c0.32,1.91,0.528,3.145,0.528,6.388   c0,8.775-4.677,17.017-12.209,21.521l-10.978,6.937C51.314,88.317,50.658,88.5,50,88.5z"/></g></svg>