<svg fill="#000000" xmlns="http://www.w3.org/2000/svg" xmlns:xlink="http://www.w3.org/1999/xlink" version="1.1" x="0px" y="0px" viewBox="0 0 110 110" enable-background="new 0 0 110 110" xml:space="preserve"><path d="M96.171,28.737c-1.5,0.852-3.08,1.618-4.507,2.549l-2.173,1.349l-2.129,1.433c-0.718,0.462-1.396,0.983-2.083,1.491  c-0.679,0.518-1.383,0.997-2.039,1.543c-1.327,1.072-2.653,2.137-3.909,3.287c-1.293,1.103-2.49,2.318-3.721,3.483  c-1.181,1.224-2.375,2.424-3.506,3.69c-1.163,1.232-2.245,2.541-3.35,3.821c-1.059,1.324-2.137,2.627-3.141,3.992  c-1.032,1.339-1.997,2.732-2.984,4.104c-0.965,1.389-1.911,2.789-2.819,4.215c-0.907,1.427-1.802,2.86-2.647,4.323  c-0.865,1.451-1.679,2.933-2.469,4.425c-0.802,1.485-1.529,3.012-2.247,4.536c-0.713,1.528-1.392,3.071-2.041,4.622  c-0.641,1.555-1.295,3.098-1.901,4.651c-0.628,1.516-1.255,3.145-1.782,4.542l-2.576,6.839l-4.563-5.565  c-0.884-1.079-1.776-2.147-2.676-3.208c-0.913-1.046-1.815-2.104-2.766-3.112c-0.479-0.501-0.94-1.021-1.43-1.51  c-0.477-0.507-0.979-0.98-1.468-1.473c-0.988-0.972-2.006-1.915-3.052-2.826c-1.045-0.914-2.119-1.799-3.229-2.642  c-0.55-0.433-1.121-0.831-1.688-1.241c-0.569-0.41-1.155-0.792-1.743-1.181c-1.185-0.755-2.395-1.506-3.669-2.146  c-1.26-0.658-2.597-1.27-3.948-1.731l-0.039-0.013c-0.212-0.073-0.326-0.304-0.253-0.517c0.05-0.146,0.176-0.246,0.318-0.27  c0.802-0.134,1.563-0.162,2.347-0.16c0.776,0.016,1.555,0.06,2.33,0.145c1.539,0.204,3.083,0.49,4.583,0.925  c1.504,0.426,2.978,0.959,4.414,1.578c1.438,0.616,2.842,1.316,4.194,2.099c1.365,0.766,2.673,1.621,3.949,2.52  c1.272,0.903,2.502,1.862,3.686,2.871c0.688,0.587,1.363,1.188,2.024,1.804c0,0,1.106-2.225,1.985-3.774  c1.736-3.11,3.599-6.134,5.514-9.113c0.958-1.49,1.932-2.969,2.94-4.423c0.995-1.463,2.038-2.893,3.093-4.313  c1.057-1.418,2.15-2.808,3.262-4.183c1.127-1.363,2.26-2.72,3.462-4.019c1.17-1.324,2.414-2.583,3.635-3.857  c1.269-1.233,2.51-2.485,3.832-3.659c1.279-1.214,2.665-2.316,4.007-3.455c1.4-1.077,2.759-2.195,4.211-3.196  c1.414-1.047,2.894-2.003,4.365-2.96c0.729-0.488,1.505-0.908,2.253-1.364c0.755-0.447,1.501-0.905,2.284-1.302l2.318-1.233  c0.788-0.387,1.596-0.744,2.39-1.114c1.582-0.776,3.206-1.331,4.809-2.001c0.204-0.085,0.438,0.011,0.524,0.215  c0.078,0.189,0.002,0.404-0.172,0.502L96.171,28.737z"/></svg>